<svg xml:space="preserve" enable-background="new 0 0 16 16" viewBox="0 0 16 16" height="16px" width="16px" y="0px" x="0px" xmlns:xlink="http://www.w3.org/1999/xlink" xmlns="http://www.w3.org/2000/svg">
					<path d="M11.335,0C10.026,0,8.848,0.541,8,1.407C7.153,0.541,5.975,0,4.667,0C2.088,0,0,2.09,0,4.667C0,12,8,16,8,16
					  s8-4,8-11.333C16.001,2.09,13.913,0,11.335,0z M8,13.684C6.134,12.49,2,9.321,2,4.667C2,3.196,3.197,2,4.667,2C6,2,8,4,8,4
					  s2-2,3.334-2c1.47,0,2.666,1.196,2.666,2.667C14.001,9.321,9.867,12.49,8,13.684z" fill="#1e1e1e"/>
					</svg>